<svg id="Layer_1" data-name="Layer 1" xmlns="http://www.w3.org/2000/svg" viewBox="0 0 283.47 282.99"><defs><style>.cls-1{fill:#2a8e40;}</style></defs><title>looogo3</title><path class="cls-1" d="M358.21,323.24a35.41,35.41,0,0,1-35.41,35.41H283.67V425h70.85a70.73,70.73,0,0,0,70.68-70.72V283.42h-67Z" transform="translate(-141.73 -141.97)"/><path class="cls-1" d="M404.48,162.69a70.5,70.5,0,0,0-50-20.72H213.84c-39.81,0-72.08,31-72.08,69.2v1.53h0v141a70.55,70.55,0,0,0,70.55,70.55h.11V325.42c0-.72-.07-1.45-.07-2.18V248.85a35.41,35.41,0,0,1,35.41-35.41H322.8a35.39,35.39,0,0,1,35.39,34.67h67V212.7A70.5,70.5,0,0,0,404.48,162.69Z" transform="translate(-141.73 -141.97)"/></svg>